<svg xmlns="http://www.w3.org/2000/svg" xmlns:xlink="http://www.w3.org/1999/xlink" version="1.1" x="0px" y="0px" viewBox="0 0 68 85" enable-background="new 0 0 68 68" xml:space="preserve"><g><path d="M32.72363,20.63159h10.79688c0.27637,0,0.5-0.22363,0.5-0.5s-0.22363-0.5-0.5-0.5H32.72363c-0.27637,0-0.5,0.22363-0.5,0.5   S32.44727,20.63159,32.72363,20.63159z"/><path d="M24.47949,20.63159h4.57813c0.27637,0,0.5-0.22363,0.5-0.5s-0.22363-0.5-0.5-0.5h-4.57813c-0.27637,0-0.5,0.22363-0.5,0.5   S24.20313,20.63159,24.47949,20.63159z"/><path d="M43.52051,47.36792H32.72363c-0.27637,0-0.5,0.22363-0.5,0.5s0.22363,0.5,0.5,0.5h10.79688c0.27637,0,0.5-0.22363,0.5-0.5   S43.79688,47.36792,43.52051,47.36792z"/><path d="M29.05762,47.36792h-4.57813c-0.27637,0-0.5,0.22363-0.5,0.5s0.22363,0.5,0.5,0.5h4.57813c0.27637,0,0.5-0.22363,0.5-0.5   S29.33398,47.36792,29.05762,47.36792z"/><path d="M47.86816,44.02026c0.27637,0,0.5-0.22363,0.5-0.5V32.72338c0-0.27637-0.22363-0.5-0.5-0.5s-0.5,0.22363-0.5,0.5v10.79688   C47.36816,43.79663,47.5918,44.02026,47.86816,44.02026z"/><path d="M47.86816,29.55737c0.27637,0,0.5-0.22363,0.5-0.5v-4.57813c0-0.27637-0.22363-0.5-0.5-0.5s-0.5,0.22363-0.5,0.5v4.57813   C47.36816,29.33374,47.5918,29.55737,47.86816,29.55737z"/><path d="M20.13184,44.02026c0.27637,0,0.5-0.22363,0.5-0.5V32.72338c0-0.27637-0.22363-0.5-0.5-0.5s-0.5,0.22363-0.5,0.5v10.79688   C19.63184,43.79663,19.85547,44.02026,20.13184,44.02026z"/><path d="M20.13184,29.55737c0.27637,0,0.5-0.22363,0.5-0.5v-4.57813c0-0.27637-0.22363-0.5-0.5-0.5s-0.5,0.22363-0.5,0.5v4.57813   C19.63184,29.33374,19.85547,29.55737,20.13184,29.55737z"/><path d="M4.29199,36.29174c1.09656,0,2.0127-0.76855,2.24286-1.79199h8.09698v3.94238h-3.17676c-0.27637,0-0.5,0.22363-0.5,0.5   s0.22363,0.5,0.5,0.5h3.17676v3.94238h-3.17676c-0.27637,0-0.5,0.22363-0.5,0.5s0.22363,0.5,0.5,0.5h3.17676v3.94238h-3.17676   c-0.27637,0-0.5,0.22363-0.5,0.5s0.22363,0.5,0.5,0.5h3.17676v1.36914c0,1.47363,1.19824,2.67188,2.67188,2.67188h1.37012v3.17676   c0,0.27637,0.22363,0.5,0.5,0.5s0.5-0.22363,0.5-0.5v-3.17676h3.94141v4.33234c-1.02344,0.23016-1.79199,1.1463-1.79199,2.24286   c0,1.26367,1.02832,2.29199,2.29199,2.29199s2.29199-1.02832,2.29199-2.29199c0-1.09656-0.76855-2.0127-1.79199-2.24286v-4.33234   h3.94238v3.17676c0,0.27637,0.22363,0.5,0.5,0.5s0.5-0.22363,0.5-0.5v-3.17676H33.5v8.09698   c-1.02344,0.23016-1.79199,1.1463-1.79199,2.24286c0,1.26367,1.02832,2.29199,2.29199,2.29199s2.29199-1.02832,2.29199-2.29199   c0-1.09656-0.76855-2.0127-1.79199-2.24286v-8.09698h3.94236v3.17676c0,0.27637,0.22365,0.5,0.5,0.5c0.27639,0,0.5-0.22363,0.5-0.5   v-3.17676h3.94143v4.33234c-1.02344,0.23016-1.79199,1.1463-1.79199,2.24286c0,1.26367,1.02832,2.29199,2.29199,2.29199   s2.29199-1.02832,2.29199-2.29199c0-1.09656-0.76855-2.0127-1.79199-2.24286v-4.33234h3.94238v3.17676   c0,0.27637,0.22363,0.5,0.5,0.5s0.5-0.22363,0.5-0.5v-3.17676h1.36914c1.47363,0,2.67285-1.19824,2.67285-2.67188V49.3269h3.17676   c0.27637,0,0.5-0.22363,0.5-0.5s-0.22363-0.5-0.5-0.5h-3.17676v-3.94238h3.17676c0.27637,0,0.5-0.22363,0.5-0.5   s-0.22363-0.5-0.5-0.5h-3.17676v-3.94238h3.17676c0.27637,0,0.5-0.22363,0.5-0.5s-0.22363-0.5-0.5-0.5h-3.17676v-3.94238h8.09607   c0.23041,1.02344,1.14722,1.79199,2.24377,1.79199c1.26367,0,2.29199-1.02832,2.29199-2.29199s-1.02832-2.29199-2.29199-2.29199   c-1.09656,0-2.01337,0.76855-2.24377,1.79199h-8.09607v-3.94141h3.17676c0.27637,0,0.5-0.22363,0.5-0.5s-0.22363-0.5-0.5-0.5   h-3.17676v-3.94238h3.17676c0.27637,0,0.5-0.22363,0.5-0.5s-0.22363-0.5-0.5-0.5h-3.17676v-3.94238h3.17676   c0.27637,0,0.5-0.22363,0.5-0.5s-0.22363-0.5-0.5-0.5h-3.17676v-1.36914c0-1.47363-1.19922-2.67285-2.67285-2.67285h-1.36914   v-3.17627c0-0.27637-0.22363-0.5-0.5-0.5s-0.5,0.22363-0.5,0.5v3.17627h-3.94238v-4.33191   c1.02344-0.23029,1.79199-1.14673,1.79199-2.24329c0-1.26367-1.02832-2.29199-2.29199-2.29199S41.5918,6.79272,41.5918,8.05639   c0,1.09656,0.76855,2.013,1.79199,2.24329v4.33191h-3.94143v-3.17627c0-0.27637-0.22361-0.5-0.5-0.5   c-0.27635,0-0.5,0.22363-0.5,0.5v3.17627H34.5V6.53552c1.02344-0.23029,1.79199-1.14673,1.79199-2.24329   c0-1.26367-1.02832-2.29199-2.29199-2.29199s-2.29199,1.02832-2.29199,2.29199c0,1.09656,0.76855,2.013,1.79199,2.24329v8.09607   h-3.94238v-3.17627c0-0.27637-0.22363-0.5-0.5-0.5s-0.5,0.22363-0.5,0.5v3.17627h-3.94238v-4.33191   c1.02344-0.23029,1.79199-1.14673,1.79199-2.24329c0-1.26367-1.02832-2.29199-2.29199-2.29199s-2.29199,1.02832-2.29199,2.29199   c0,1.09656,0.76855,2.013,1.79199,2.24329v4.33191h-3.94141v-3.17627c0-0.27637-0.22363-0.5-0.5-0.5s-0.5,0.22363-0.5,0.5v3.17627   h-1.37012c-1.47363,0-2.67188,1.19922-2.67188,2.67285v1.36914h-3.17676c-0.27637,0-0.5,0.22363-0.5,0.5s0.22363,0.5,0.5,0.5   h3.17676v3.94238h-3.17676c-0.27637,0-0.5,0.22363-0.5,0.5s0.22363,0.5,0.5,0.5h3.17676v3.94238h-3.17676   c-0.27637,0-0.5,0.22363-0.5,0.5s0.22363,0.5,0.5,0.5h3.17676v3.94141H6.53485c-0.23016-1.02344-1.1463-1.79199-2.24286-1.79199   C3.02832,31.70776,2,32.73608,2,33.99975S3.02832,36.29174,4.29199,36.29174z M25.40723,59.94311   c0,0.71289-0.5791,1.29199-1.29199,1.29199s-1.29199-0.5791-1.29199-1.29199c0-0.71777,0.5791-1.30176,1.29199-1.30176   S25.40723,59.22534,25.40723,59.94311z M35.29199,63.70776c0,0.71289-0.5791,1.29199-1.29199,1.29199   s-1.29199-0.5791-1.29199-1.29199c0-0.71436,0.57422-1.29419,1.28235-1.2998c0.00342,0.00006,0.00623,0.00195,0.00964,0.00195   s0.00623-0.00189,0.00964-0.00195C34.71777,62.41357,35.29199,62.9934,35.29199,63.70776z M45.17578,59.94311   c0,0.71289-0.5791,1.29199-1.29199,1.29199s-1.29199-0.5791-1.29199-1.29199c0-0.71777,0.5791-1.30176,1.29199-1.30176   S45.17578,59.22534,45.17578,59.94311z M63.70801,32.70776c0.71289,0,1.29199,0.5791,1.29199,1.29199   s-0.5791,1.29199-1.29199,1.29199c-0.71442,0-1.2934-0.573-1.30029-1.27997c0.00012-0.00427,0.00244-0.00775,0.00244-0.01202   s-0.00232-0.00775-0.00244-0.01202C62.41461,33.28076,62.99359,32.70776,63.70801,32.70776z M42.5918,8.05639   c0-0.7124,0.5791-1.29199,1.29199-1.29199s1.29199,0.57959,1.29199,1.29199c0,0.71826-0.5791,1.30225-1.29199,1.30225   S42.5918,8.77465,42.5918,8.05639z M32.70801,4.29223c0-0.7124,0.5791-1.29199,1.29199-1.29199s1.29199,0.57959,1.29199,1.29199   c0,0.71442-0.57355,1.29376-1.28113,1.30005C34.00702,5.59222,34.00385,5.59008,34,5.59008s-0.00702,0.00214-0.01086,0.0022   C33.28156,5.58599,32.70801,5.00665,32.70801,4.29223z M22.82324,8.05639c0-0.7124,0.5791-1.29199,1.29199-1.29199   s1.29199,0.57959,1.29199,1.29199c0,0.71826-0.5791,1.30225-1.29199,1.30225S22.82324,8.77465,22.82324,8.05639z    M15.63184,17.30444c0-0.92285,0.75-1.67285,1.67188-1.67285h33.3916c0.92285,0,1.67285,0.75,1.67285,1.67285v33.3916   c0,0.92188-0.75,1.67188-1.67285,1.67188h-33.3916c-0.92188,0-1.67188-0.75-1.67188-1.67188V17.30444z M4.29199,32.70776   c0.71436,0,1.29419,0.57422,1.2998,1.28235c-0.00006,0.00342-0.00195,0.00623-0.00195,0.00964s0.00189,0.00623,0.00195,0.00964   c-0.00562,0.70813-0.58545,1.28235-1.2998,1.28235C3.5791,35.29174,3,34.71264,3,33.99975S3.5791,32.70776,4.29199,32.70776z"/><path d="M18.1416,18.65307c0.27637,0,0.52148-0.23438,0.52148-0.51074s-0.24512-0.51074-0.52148-0.51074   s-0.50977,0.23438-0.50977,0.51074S17.86523,18.65307,18.1416,18.65307z"/><path d="M49.8623,18.65307c0.27637,0,0.52148-0.23438,0.52148-0.51074s-0.24512-0.51074-0.52148-0.51074   s-0.50977,0.23438-0.50977,0.51074S49.58594,18.65307,49.8623,18.65307z"/><path d="M49.8623,50.37866c0.27637,0,0.52148-0.23438,0.52148-0.51074s-0.24512-0.50977-0.52148-0.50977   s-0.50977,0.2334-0.50977,0.50977S49.58594,50.37866,49.8623,50.37866z"/><path d="M18.12598,50.37866c0.27637,0,0.52148-0.23438,0.52148-0.51074s-0.24512-0.50977-0.52148-0.50977   s-0.50977,0.2334-0.50977,0.50977S17.84961,50.37866,18.12598,50.37866z"/><polygon points="30.41797,37.16284 25.09375,33.99975 30.41699,30.83764 29.90723,29.97827 23.86035,33.57006 23.85938,34.42944    29.90625,38.02221  "/><polygon points="37.58203,30.83764 42.90527,33.99975 37.58105,37.16284 38.09277,38.02221 44.13965,34.42944 44.13867,33.57006    38.0918,29.97827  "/><rect x="33.50002" y="26.54242" transform="matrix(0.94731 0.32033 -0.32033 0.94731 12.68274 -9.09953)" width="0.99996" height="14.91565"/><path d="M42.86816,25.63159c0.27637,0,0.5-0.22363,0.5-0.5s-0.22363-0.5-0.5-0.5H39.0625c-0.27637,0-0.5,0.22363-0.5,0.5   s0.22363,0.5,0.5,0.5H42.86816z"/><path d="M28.9375,43.36792c0.27637,0,0.5-0.22363,0.5-0.5s-0.22363-0.5-0.5-0.5h-3.80566c-0.27637,0-0.5,0.22363-0.5,0.5   s0.22363,0.5,0.5,0.5H28.9375z"/></g><text x="0" y="83" fill="#000000" font-size="5px" font-weight="bold" font-family="'Helvetica Neue', Helvetica, Arial-Unicode, Arial, Sans-serif">Created by Vectors Point</text><text x="0" y="88" fill="#000000" font-size="5px" font-weight="bold" font-family="'Helvetica Neue', Helvetica, Arial-Unicode, Arial, Sans-serif">from the Noun Project</text></svg>