<?xml version="1.0" standalone="no"?>
<!DOCTYPE svg PUBLIC "-//W3C//DTD SVG 20010904//EN"
 "http://www.w3.org/TR/2001/REC-SVG-20010904/DTD/svg10.dtd">
<svg version="1.0" xmlns="http://www.w3.org/2000/svg"
 width="180.000000pt" height="180.000000pt" viewBox="0 0 180.000000 180.000000"
 preserveAspectRatio="xMidYMid meet">
<metadata>
Created by potrace 1.14, written by Peter Selinger 2001-2017
</metadata>
<g transform="translate(0.000000,180.000000) scale(0.100000,-0.100000)"
fill="#000000" stroke="none">
<path d="M1473 1565 c0 -8 9 -15 19 -15 14 0 17 -5 13 -25 -3 -14 -7 -37 -10
-52 -3 -16 -8 -36 -11 -45 -4 -13 0 -18 15 -18 12 0 21 7 21 15 0 8 1 17 1 20
1 2 7 26 14 52 9 37 17 49 34 51 11 2 21 10 21 18 0 10 -14 14 -58 14 -46 0
-59 -3 -59 -15z"/>
<path d="M1612 1533 c-24 -114 -25 -123 -9 -123 11 0 20 18 29 58 l13 57 3
-57 c4 -80 28 -80 67 2 16 33 30 59 31 57 1 -1 -4 -28 -11 -60 -13 -54 -12
-57 6 -57 10 0 19 7 19 15 0 20 0 20 11 57 5 18 12 48 15 66 5 29 3 32 -21 32
-21 0 -30 -9 -51 -55 -29 -61 -41 -69 -42 -27 0 80 -1 82 -26 82 -21 0 -26 -7
-34 -47z"/>
<path d="M0 1193 c0 -317 2 -372 14 -361 61 59 482 465 526 508 31 30 96 92
143 138 47 45 85 83 84 84 -1 1 -174 2 -384 3 l-383 2 0 -374z"/>
<path d="M428 1137 l-428 -432 0 -290 0 -290 710 715 c390 393 710 718 710
721 0 3 -127 6 -282 7 l-283 0 -427 -431z"/>
<path d="M747 792 c-75 -75 -137 -140 -137 -143 0 -7 5 -13 230 -249 80 -83
171 -180 202 -213 l58 -62 295 -1 c282 -1 295 0 280 17 -13 13 -778 777 -789
786 -1 1 -64 -59 -139 -135z"/>
</g>
</svg>
